<svg width="30" height="30" viewBox="0 0 30 30" fill="none" xmlns="http://www.w3.org/2000/svg">
<path d="M13.9893 15.7119L3.98145 7.93066L3.17578 7.30371L3.98437 7.93359V23.2031H26.0156V7.93359L16.002 15.7119C15.7141 15.9355 15.3601 16.0569 14.9956 16.0569C14.6311 16.0569 14.2771 15.9355 13.9893 15.7119V15.7119Z" fill="black" fill-opacity="0.15"/>
<path d="M25.6729 5.82422L26.8242 7.30371L26.0156 7.93359L26.8271 7.30371L25.6758 5.82422H25.6729Z" fill="black" fill-opacity="0.15"/>
<path d="M27.1875 4.6875H2.8125C2.29395 4.6875 1.875 5.10645 1.875 5.625V24.375C1.875 24.8936 2.29395 25.3125 2.8125 25.3125H27.1875C27.7061 25.3125 28.125 24.8936 28.125 24.375V5.625C28.125 5.10645 27.7061 4.6875 27.1875 4.6875ZM24.4189 6.7998L15 14.1211L5.58105 6.7998H24.4189ZM26.0156 7.93359V23.2031H3.98438V7.93359L3.17578 7.30371L3.98145 7.93066L13.9893 15.7119C14.2771 15.9355 14.6311 16.0569 14.9956 16.0569C15.3601 16.0569 15.7141 15.9355 16.002 15.7119L26.0156 7.93359L26.8242 7.30371L25.6729 5.82422H25.6758L26.8271 7.30371L26.0156 7.93359Z" fill="black"/>
</svg>
