<svg width="55" height="55" viewBox="0 0 55 55" fill="none" xmlns="http://www.w3.org/2000/svg">
<path d="M50.7031 0H4.29688C1.92271 0 0 1.925 0 4.29688V50.7031C0 53.0773 1.925 55 4.29688 55H50.7031C53.0773 55 55 53.075 55 50.7031V4.29688C55 1.92271 53.075 0 50.7031 0ZM27.5 42.9688C26.1456 42.9688 24.8187 42.8748 23.5308 42.6937C22.2429 43.6012 14.7927 48.8331 14.0892 48.9317C14.0892 48.9317 13.8027 49.044 13.5575 48.8996C13.3123 48.7552 13.3558 48.3748 13.3558 48.3748C13.4292 47.8706 15.2877 41.4585 15.6292 40.2783C9.33854 37.1617 5.15625 31.641 5.15625 25.3527C5.15625 15.6223 15.1594 7.73438 27.5 7.73438C39.8406 7.73438 49.8438 15.6223 49.8438 25.3527C49.8438 35.0808 39.8406 42.9688 27.5 42.9688ZM18.4479 22.6119H16.4358V30.2706C16.4358 30.949 15.8583 31.5012 15.1456 31.5012C14.4329 31.5012 13.8577 30.9512 13.8577 30.2706V22.6119H11.8456C11.5271 22.5883 11.2293 22.4452 11.012 22.2112C10.7946 21.9772 10.6738 21.6697 10.6738 21.3503C10.6738 21.0309 10.7946 20.7234 11.012 20.4894C11.2293 20.2554 11.5271 20.1123 11.8456 20.0887H18.4456C18.7641 20.1123 19.0619 20.2554 19.2793 20.4894C19.4966 20.7234 19.6174 21.0309 19.6174 21.3503C19.6174 21.6697 19.4966 21.9772 19.2793 22.2112C19.0619 22.4452 18.7641 22.5883 18.4456 22.6119H18.4479ZM43.6265 29.3883C43.7294 29.5231 43.8045 29.677 43.8473 29.8411C43.8902 30.0051 43.9001 30.1761 43.8762 30.344C43.8527 30.5114 43.7962 30.6726 43.7101 30.8181C43.624 30.9636 43.5099 31.0907 43.3744 31.1919C43.1518 31.3615 42.8796 31.4533 42.5998 31.4531C42.3997 31.4542 42.2022 31.4083 42.0231 31.3192C41.844 31.23 41.6883 31.1001 41.5685 30.9398L38.5458 26.9362L38.099 27.3831V30.195C38.0984 30.5366 37.9625 30.8641 37.7212 31.1058C37.4799 31.3476 37.1526 31.484 36.811 31.4852C36.4689 31.4852 36.1407 31.3493 35.8987 31.1073C35.6568 30.8654 35.5208 30.5372 35.5208 30.195V21.3767C35.5349 21.0442 35.6768 20.73 35.917 20.4997C36.1572 20.2694 36.4771 20.1408 36.8099 20.1408C37.1427 20.1408 37.4626 20.2694 37.7028 20.4997C37.943 20.73 38.0849 21.0442 38.099 21.3767V24.1496L41.6969 20.5517C41.7908 20.459 41.9021 20.3857 42.0244 20.3362C42.1467 20.2866 42.2776 20.2617 42.4096 20.2629C42.7304 20.2629 43.0558 20.4027 43.2987 20.6456C43.5199 20.8625 43.6544 21.1525 43.6769 21.4615C43.6888 21.6052 43.6695 21.7498 43.6205 21.8855C43.5715 22.0211 43.4938 22.1446 43.3927 22.2475L40.4548 25.1831L43.6287 29.3883H43.6265ZM24.491 21.3629C24.2733 20.7442 23.6133 20.1071 22.7723 20.0887C21.9335 20.1071 21.2735 20.7442 21.0558 21.3606L17.9735 29.4754C17.5817 30.69 17.9231 31.1437 18.2783 31.3087C18.5352 31.4257 18.8142 31.4859 19.0965 31.4852C19.635 31.4852 20.0452 31.2675 20.169 30.9169L20.8083 29.244H24.7385L25.3779 30.9169C25.5017 31.2675 25.9119 31.4852 26.4504 31.4852C26.7328 31.4849 27.0118 31.424 27.2685 31.3065C27.6238 31.1438 27.9652 30.6923 27.5733 29.4731L24.491 21.3606V21.3629ZM21.4867 26.9615L22.7746 23.304L24.0602 26.9615H21.4867ZM35.019 30.1308C35.0117 30.4514 34.8776 30.7559 34.646 30.9776C34.4144 31.1994 34.1043 31.3201 33.7837 31.3133H29.6496C29.4907 31.317 29.3326 31.2893 29.1844 31.2318C29.0362 31.1744 28.9008 31.0883 28.7858 30.9785C28.6709 30.8687 28.5788 30.7373 28.5146 30.5918C28.4505 30.4464 28.4157 30.2897 28.4121 30.1308V21.3767C28.4121 20.6662 29.0033 20.0887 29.7298 20.0887C30.4562 20.0887 31.0452 20.6662 31.0452 21.3767V28.9506H33.7837C34.4644 28.9506 35.0212 29.48 35.0212 30.1308H35.019Z" fill="#5E4B3B"/>
</svg>
