<svg width="90" height="143" viewBox="0 0 90 143" fill="none" xmlns="http://www.w3.org/2000/svg">
<path d="M89.95 130.71V142.522H0.05L0.05 130.71H89.95ZM89.95 117.645V120.407H0.05L0.05 117.645H89.95ZM89.95 104.574V113.53H0.05L0.05 104.574H89.95ZM89.95 91.5096V95.2738H0.05L0.05 91.5096H89.95ZM89.95 78.4447V81.201H0.05L0.05 78.4447H45H89.95ZM89.95 65.3799V77.1164H0.05L0.05 65.3799H89.95ZM89.95 52.315V58.1769H0.05L0.05 52.315H89.95ZM89.95 39.2504V40.4713H0.05L0.05 39.2504H89.95ZM89.95 26.1798V30.06H0.05L0.05 26.1798H89.95ZM89.95 13.1149V15.877H0.05L0.05 13.1149H89.95ZM89.95 0.0500946V11.7866H0.05L0.05 0.0500946H89.95Z" stroke="#B6B6B6" stroke-width="0.1"/>
</svg>
