<svg width="90" height="200" viewBox="0 0 90 200" fill="none" xmlns="http://www.w3.org/2000/svg">
<path d="M90 192.969V200H0L0 192.969H90ZM89.9361 185.938V189.509H0L0 185.938H89.9361ZM89.9361 175.446V178.906H0L0 175.446H89.9361ZM89.9361 157.924V161.384H0L0 157.924H89.9361ZM89.9361 140.402V147.321H0L0 140.402H89.9361ZM89.9361 126.339V129.799H0L0 126.339H89.9361ZM89.9361 119.308V122.768H0L0 119.308H89.9361ZM89.9361 112.277V115.737H0L0 112.277H89.9361ZM89.9361 94.7545V101.786H0L0 94.7545H89.9361ZM89.9361 77.2321L89.9361 84.2634H0L0 77.2321H89.9361ZM89.9361 63.1696V70.2009H0L0 63.1696H89.9361ZM89.9361 49.1071V56.1384H0L0 49.1071H89.9361ZM89.9361 38.6161V45.6473H0L0 38.6161H89.9361ZM89.9361 17.5223V28.0134H0L0 17.5223H89.9361ZM89.9361 10.4911V14.0625H0L0 10.4911H89.9361ZM90 0V7.03125H0L0 0H90Z" fill="black"/>
</svg>
