<svg width="90" height="143" viewBox="0 0 90 143" fill="none" xmlns="http://www.w3.org/2000/svg">
<path d="M90 137.835V142.857H0L0 137.835H90ZM89.9361 132.813V135.364H0L0 132.813H89.9361ZM89.9361 125.319V127.79H0L0 125.319H89.9361ZM89.9361 112.803V115.274H0L0 112.803H89.9361ZM89.9361 100.287V105.23H0L0 100.287H89.9361ZM89.9361 90.2424V92.7137H0L0 90.2424H89.9361ZM89.9361 85.2201V87.6914H0L0 85.2201H89.9361ZM89.9361 80.1977V82.669H0L0 80.1977H89.9361ZM89.9361 67.6818V72.7041H0L0 67.6818H89.9361ZM89.9361 55.1659L89.9361 60.1882H0L0 55.1659H89.9361ZM89.9361 45.1212V50.1435H0L0 45.1212H89.9361ZM89.9361 35.0766V40.0989H0L0 35.0766H89.9361ZM89.9361 27.5829V32.6053H0L0 27.5829H89.9361ZM89.9361 12.516V20.0096H0L0 12.516H89.9361ZM89.9361 7.49365V10.0447H0L0 7.49365H89.9361ZM90 3.05176e-05V5.02235H0L0 3.05176e-05H90Z" fill="white"/>
</svg>
