<svg width="16" height="24" viewBox="0 0 16 24" fill="none" xmlns="http://www.w3.org/2000/svg">
<path d="M13.8333 0.333252H2.16667C1.72464 0.333252 1.30072 0.508847 0.988156 0.821407C0.675595 1.13397 0.5 1.55789 0.5 1.99992V21.9999C0.5 22.4419 0.675595 22.8659 0.988156 23.1784C1.30072 23.491 1.72464 23.6666 2.16667 23.6666H13.8333C14.2754 23.6666 14.6993 23.491 15.0118 23.1784C15.3244 22.8659 15.5 22.4419 15.5 21.9999V1.99992C15.5 1.55789 15.3244 1.13397 15.0118 0.821407C14.6993 0.508847 14.2754 0.333252 13.8333 0.333252ZM8.83333 21.9999H7.16667V20.3332H8.83333V21.9999ZM2.16667 18.6666V1.99992H13.8333V18.6666H2.16667Z" fill="white"/>
</svg>
