<svg width="30" height="30" viewBox="0 0 30 30" fill="none" xmlns="http://www.w3.org/2000/svg">
<path d="M20.8333 3.33334H9.16667C8.72464 3.33334 8.30072 3.50894 7.98816 3.8215C7.6756 4.13406 7.5 4.55798 7.5 5.00001V25C7.5 25.442 7.6756 25.866 7.98816 26.1785C8.30072 26.4911 8.72464 26.6667 9.16667 26.6667H20.8333C21.2754 26.6667 21.6993 26.4911 22.0118 26.1785C22.3244 25.866 22.5 25.442 22.5 25V5.00001C22.5 4.55798 22.3244 4.13406 22.0118 3.8215C21.6993 3.50894 21.2754 3.33334 20.8333 3.33334V3.33334ZM15.8333 25H14.1667V23.3333H15.8333V25ZM9.16667 21.6667V5.00001H20.8333V21.6667H9.16667Z" fill="black"/>
</svg>
