<svg width="198" height="43" viewBox="0 0 198 43" fill="none" xmlns="http://www.w3.org/2000/svg">
<path d="M0 28V0.859998H1.38V28H0ZM2.76 28V0.859998H6.9V28H2.76ZM8.28 28V0.859998H12.42V28H8.28ZM13.8 28V0.859998H15.18V28H13.8ZM19.32 28V0.859998H20.7V28H19.32ZM7.774 32.002H11.178C12.3127 32.002 13.156 32.2933 13.708 32.876C14.2907 33.428 14.582 34.1487 14.582 35.038C14.582 35.8967 14.306 36.602 13.754 37.154C13.202 37.706 12.374 37.982 11.27 37.982H9.016V42.674H7.774V32.002ZM11.132 36.924C11.8987 36.924 12.4507 36.7553 12.788 36.418C13.156 36.1113 13.34 35.6667 13.34 35.084C13.34 34.5013 13.156 34.0413 12.788 33.704C12.42 33.336 11.8833 33.152 11.178 33.152H9.016V36.924H11.132ZM22.1016 28V0.859998H26.2416V28H22.1016ZM27.6216 28V0.859998H29.0016V28H27.6216ZM30.3816 28V0.859998H34.5216V28H30.3816ZM35.9016 28V0.859998H37.2816V28H35.9016ZM41.4216 28V0.859998H42.8016V28H41.4216ZM33.1416 42.858C31.9149 42.858 30.9796 42.3827 30.3356 41.432C29.6609 40.4813 29.3236 39.132 29.3236 37.384C29.3236 35.6973 29.6609 34.3633 30.3356 33.382C31.0102 32.4313 31.9456 31.956 33.1416 31.956C34.3376 31.956 35.2729 32.4313 35.9476 33.382C36.6222 34.3633 36.9596 35.6973 36.9596 37.384C36.9596 39.132 36.6222 40.4813 35.9476 41.432C35.3036 42.3827 34.3682 42.858 33.1416 42.858ZM33.1416 41.8C33.9696 41.8 34.5982 41.432 35.0276 40.696C35.4876 39.9293 35.7176 38.8253 35.7176 37.384C35.7176 36.0347 35.4876 34.9613 35.0276 34.164C34.5676 33.3973 33.9389 33.014 33.1416 33.014C32.3442 33.014 31.7156 33.3973 31.2556 34.164C30.7956 34.9613 30.5656 36.0347 30.5656 37.384C30.5656 38.8253 30.7802 39.9293 31.2096 40.696C31.6696 41.432 32.3136 41.8 33.1416 41.8ZM44.2031 28V0.859998H48.3431V28H44.2031ZM49.7231 28V0.859998H51.1031V28H49.7231ZM52.4831 28V0.859998H53.8631V28H52.4831ZM55.2431 28V0.859998H59.3831V28H55.2431ZM63.5231 28V0.859998H64.9031V28H63.5231ZM51.9311 32.002H55.0591C56.2858 32.002 57.1751 32.278 57.7271 32.83C58.3098 33.3513 58.6011 34.1027 58.6011 35.084C58.6011 35.6973 58.4018 36.28 58.0031 36.832C57.6045 37.384 57.0831 37.752 56.4391 37.936L58.9231 42.674H57.5891L55.1971 37.982H53.1271V42.674H51.9311V32.002ZM55.1971 36.924C55.9331 36.924 56.4851 36.7553 56.8531 36.418C57.1905 36.1113 57.3591 35.6667 57.3591 35.084C57.3591 34.5013 57.1905 34.026 56.8531 33.658C56.4851 33.3207 55.9331 33.152 55.1971 33.152H53.1271V36.924H55.1971ZM66.3047 28V0.859998H67.6847V28H66.3047ZM69.0647 28V0.859998H70.4447V28H69.0647ZM71.8247 28V0.859998H75.9647V28H71.8247ZM77.3447 28V0.859998H81.4847V28H77.3447ZM85.6247 28V0.859998H87.0047V28H85.6247ZM76.6087 33.06H73.6187V32.002H80.9787V33.06H77.8507V42.674H76.6087V33.06ZM88.4062 28V0.859998H89.7863V28H88.4062ZM91.1663 28V0.859998H95.3063V28H91.1663ZM96.6863 28V0.859998H100.826V28H96.6863ZM104.966 28V0.859998H106.346V28H104.966ZM107.726 28V0.859998H109.106V28H107.726ZM96.5023 32.002H102.62V33.06H97.6983V36.418H101.7V37.43H97.6983V42.674H96.5023V32.002ZM110.508 28V0.859998H114.648V28H110.508ZM116.028 28V0.859998H117.408V28H116.028ZM118.788 28V0.859998H122.928V28H118.788ZM124.308 28V0.859998H125.688V28H124.308ZM129.828 28V0.859998H131.208V28H129.828ZM121.548 42.858C120.321 42.858 119.386 42.3827 118.742 41.432C118.067 40.4813 117.73 39.132 117.73 37.384C117.73 35.6973 118.067 34.3633 118.742 33.382C119.416 32.4313 120.352 31.956 121.548 31.956C122.744 31.956 123.679 32.4313 124.354 33.382C125.028 34.3633 125.366 35.6973 125.366 37.384C125.366 39.132 125.028 40.4813 124.354 41.432C123.71 42.3827 122.774 42.858 121.548 42.858ZM121.548 41.8C122.376 41.8 123.004 41.432 123.434 40.696C123.894 39.9293 124.124 38.8253 124.124 37.384C124.124 36.0347 123.894 34.9613 123.434 34.164C122.974 33.3973 122.345 33.014 121.548 33.014C120.75 33.014 120.122 33.3973 119.662 34.164C119.202 34.9613 118.972 36.0347 118.972 37.384C118.972 38.8253 119.186 39.9293 119.616 40.696C120.076 41.432 120.72 41.8 121.548 41.8ZM132.609 28V0.859998H133.989V28H132.609ZM135.369 28V0.859998H139.509V28H135.369ZM140.889 28V0.859998H142.269V28H140.889ZM143.649 28V0.859998H145.029V28H143.649ZM149.169 28V0.859998H153.309V28H149.169ZM140.521 32.002H141.901V32.14C141.84 32.2013 141.794 32.278 141.763 32.37C141.763 32.4313 141.763 32.5693 141.763 32.784V41.662H146.869V42.674H140.521V32.002ZM154.711 28V0.859998H156.091V28H154.711ZM157.471 28V0.859998H161.611V28H157.471ZM162.991 28V0.859998H164.371V28H162.991ZM168.511 28V0.859998H172.651V28H168.511ZM174.031 28V0.859998H175.411V28H174.031ZM162.853 41.662H164.969V33.014H162.991V32.002H168.281V33.014H166.165V41.662H168.373V42.674H162.853V41.662ZM176.812 28V0.859998H180.953V28H176.812ZM182.333 28V0.859998H183.713V28H182.333ZM185.093 28V0.859998H189.233V28H185.093ZM190.613 28V0.859998H191.993V28H190.613ZM196.133 28V0.859998H197.513V28H196.133ZM187.853 42.858C186.626 42.858 185.691 42.3827 185.047 41.432C184.372 40.4813 184.035 39.132 184.035 37.384C184.035 35.6973 184.372 34.3633 185.047 33.382C185.721 32.4313 186.657 31.956 187.853 31.956C189.049 31.956 189.984 32.4313 190.659 33.382C191.333 34.3633 191.671 35.6973 191.671 37.384C191.671 39.132 191.333 40.4813 190.659 41.432C190.015 42.3827 189.079 42.858 187.853 42.858ZM187.853 41.8C188.681 41.8 189.309 41.432 189.739 40.696C190.199 39.9293 190.429 38.8253 190.429 37.384C190.429 36.0347 190.199 34.9613 189.739 34.164C189.279 33.3973 188.65 33.014 187.853 33.014C187.055 33.014 186.427 33.3973 185.967 34.164C185.507 34.9613 185.277 36.0347 185.277 37.384C185.277 38.8253 185.491 39.9293 185.921 40.696C186.381 41.432 187.025 41.8 187.853 41.8Z" fill="white"/>
</svg>
